<svg height="61" width="280" xmlns="http://www.w3.org/2000/svg"><g fill="none" fill-rule="evenodd"><path d="M7.622 40.87h5.289c1.381 0 3.144.096 4.335-.714 1.096-.714 1.715-2.048 1.715-3.382 0-1.238-.762-2.524-1.858-3.143-1.096-.62-2.62-.62-3.859-.62H7.622zm0-13.67h5.193c1.334 0 2.907.096 4.05-.762.905-.667 1.381-1.858 1.381-2.953 0-1.19-.571-2.334-1.619-2.953-1.096-.62-3.097-.476-4.383-.476H7.622zm7.004-12.956c2.573 0 5.24 0 7.48 1.43 2.62 1.666 4.001 4.048 4.001 7.144 0 3.716-2.477 6.192-5.907 7.05v.095c4.05.81 6.812 3.905 6.812 8.145 0 2.858-1.714 5.382-4.001 7.05-2.382 1.762-5.574 1.762-8.385 1.762H0V14.244zM30.492 46.92h7.622V14.244h-7.622zM54.79 35.536v-6.097h13.434v17.48h-3.478l-1.095-3.762c-2.43 2.954-5.098 4.24-8.91 4.24-9.576 0-13.53-7.955-13.53-16.529 0-8.86 4.336-17.1 14.197-17.1 7.051 0 11.816 4.286 12.816 11.194l-7.241 1c-.334-3.287-2.097-6.05-5.765-6.05-5.384 0-6.194 7.002-6.194 11.051 0 4.24 1.192 10.241 6.527 10.241 3.335 0 5.623-2.334 5.432-5.668zm25.25-7.146h4.193c1.572 0 3.287.144 4.669-.666 1.238-.762 1.905-2.286 1.905-3.715 0-1.286-.762-2.668-1.857-3.334-1.287-.81-3.479-.62-4.907-.62H80.04zm0 18.53h-7.622V14.244h13.768c2.906 0 5.86.048 8.385 1.668 2.668 1.762 4.145 4.953 4.145 8.144 0 3.716-2.144 7.145-5.67 8.431l6.051 14.433h-8.48l-5.003-12.91H80.04zm22.87 0h7.622V14.244h-7.622zm24.297-11.384v-6.097h13.435v17.48h-3.478l-1.096-3.762c-2.43 2.954-5.097 4.24-8.909 4.24-9.576 0-13.53-7.955-13.53-16.529 0-8.86 4.336-17.1 14.197-17.1 7.052 0 11.815 4.286 12.816 11.194l-7.242 1c-.333-3.287-2.095-6.05-5.764-6.05-5.384 0-6.194 7.002-6.194 11.051 0 4.24 1.192 10.241 6.527 10.241 3.336 0 5.622-2.334 5.431-5.668z" fill="#fff"/><path d="M188.416 1.602c.026.973-.217 1.735-.73 2.287-.566.6-1.159 1.174-1.779 1.717a60.4 60.4 0 0 1-2.552 4.499 178.499 178.499 0 0 1-2.815 4.357 139.367 139.367 0 0 0-2.81 4.39 37.8 37.8 0 0 0-2.404 4.586 17.991 17.991 0 0 0-2.502 2.923 73.478 73.478 0 0 0-2.051 3.181 105.488 105.488 0 0 0-1.932 3.307 37.874 37.874 0 0 1-2.013 3.212c.41 1.065.998 1.877 1.764 2.434.782.566 1.613 1.06 2.485 1.474.89.426 1.762.889 2.613 1.388.852.5 1.543 1.205 2.074 2.117a22.39 22.39 0 0 1 4.153.57c1.365.322 2.758.396 4.179.22 1.054-.129 2.029-.527 2.924-1.195.456.049.904.158 1.33.325a2.99 2.99 0 0 0 1.452.17c.413-.05.8-.307 1.162-.77.108.126.221.287.338.482a.49.49 0 0 0 .52.25.767.767 0 0 0 .236-.064.57.57 0 0 1 .168-.056l.135 1.1c.05.412.122.81.216 1.194.094.384.235.774.423 1.17-.367.045-.645.148-.834.311l-.568.488c-.207.174-.435.32-.68.433-.264.126-.63.17-1.1.134-.27.08-.424.238-.465.476a.957.957 0 0 1-.38.605c-.292.269-.702.435-1.229.5a2.87 2.87 0 0 0-1.367.516l-2.32.424a40.113 40.113 0 0 1-3.984.524c-.645.056-1.292.089-1.942.099-.63.01-1.262-.005-1.89-.047a7.096 7.096 0 0 1-1.567-.26 25.214 25.214 0 0 1-4.738-2.21 458.932 458.932 0 0 1-4.522-2.723l-1.218-.828c-.41-.277-.836-.528-1.278-.75-.052-.04-.17-.049-.353-.026-.204.019-.4.091-.567.21a1.03 1.03 0 0 1-.499.2c-.184.022-.284-.035-.3-.173a45.757 45.757 0 0 0-3.448 4.888l-3.138 5.129c.045.366.172.641.38.825l.626.55c.21.184.408.381.597.59.188.21.305.497.35.864.033.275.039.507.015.696a6.254 6.254 0 0 1-1.41.452c-.56.117-1.112.267-1.655.447a7.264 7.264 0 0 0-1.487.671 1.8 1.8 0 0 0-.84 1.115c-.332-.053-.63-.11-.894-.17-.263-.06-.575-.045-.937.046-.422-.414-.858-.837-1.306-1.27a12.49 12.49 0 0 1-1.256-1.415 12.428 12.428 0 0 1-.366-1.84c-.13-1.053-.086-2.023.131-2.91s.476-1.814.776-2.78c.706-.442 1.38-.934 2.017-1.47.611-.516.978-1.224 1.101-2.123.59-.118 1.059-.373 1.406-.765s.667-.814.96-1.269c.294-.454.603-.865.931-1.23.328-.366.807-.634 1.437-.804a1.138 1.138 0 0 0-.069-.271 1.138 1.138 0 0 1-.067-.27c-.04-.322 0-.57.118-.747a1.85 1.85 0 0 1 .464-.476c.188-.137.381-.266.58-.385.196-.118.348-.299.457-.545a21.05 21.05 0 0 0-.761-1.371 9.096 9.096 0 0 0-.882-1.217 31.799 31.799 0 0 0-1.69-1.816l-1.748-1.739a3.849 3.849 0 0 0-.965-.753 3.348 3.348 0 0 1-.973-.822 2.852 2.852 0 0 1-.565-1.186 3.552 3.552 0 0 0-.496-1.196 5.954 5.954 0 0 0-1.015-1.165c-.391-.347-.624-.82-.697-1.415-.04-.31-.008-.624.096-.918a4.51 4.51 0 0 1-1.323-1.686 6.85 6.85 0 0 1-.602-2.054 7.396 7.396 0 0 1 .035-1.992c.1-.68.327-1.336.67-1.932l.619-.076c.23-.027.335-.11.318-.247.316.156.647.279.987.367.36.095.587.323.678.684.417-.005.838.013 1.263.054l1.27.123a36.336 36.336 0 0 1 2.408 3.122c.74 1.077 1.488 2.148 2.244 3.213a61.836 61.836 0 0 0 2.373 3.127 22.072 22.072 0 0 0 2.717 2.805 4.864 4.864 0 0 0 1.636-1.456c.437-.612.836-1.241 1.198-1.89s.762-1.28 1.199-1.891a4.864 4.864 0 0 1 1.635-1.457c-.05-.04-.083-.106-.094-.198-.028-.23.03-.41.177-.545.147-.134.151-.378.015-.734a22.846 22.846 0 0 0 2.29-2.374c.69-.829 1.121-1.858 1.295-3.089l.963-.117c.924-1.608 1.855-3.21 2.794-4.808a25.3 25.3 0 0 1 3.327-4.454l-.119-.963a8.853 8.853 0 0 0 1.727-1.85c.475-.69.924-1.396 1.344-2.12.424-.727.834-1.464 1.23-2.208.396-.746.886-1.439 1.456-2.062a5.4 5.4 0 0 0 1.503.304c.515.03 1.022.084 1.521.162a9.07 9.07 0 0 1 1.438.347c.473.16.9.43 1.248.789zm14.495 17.204c.07.544.098 1.093.086 1.641a6.263 6.263 0 0 1-.342.557 1.09 1.09 0 0 0-.189.568c-.24.224-.46.467-.657.727-.237.304-.318.588-.244.855l-.422.05c-.19.367-.436.704-.73 1-.29.29-.597.567-.92.832l-.972.793a6.12 6.12 0 0 0-.882.886c-.16.039-.285.084-.381.134a.833.833 0 0 1-.39.075c-.571.46-1.179.877-1.816 1.248-.638.37-1.275.735-1.913 1.096-.639.36-1.27.735-1.895 1.124a13.92 13.92 0 0 0-1.764 1.3.82.82 0 0 0-.245 0 2.094 2.094 0 0 0-.534.136 2.1 2.1 0 0 1-.534.138 2.28 2.28 0 0 1-.32.008.767.767 0 0 1-.299-.053.875.875 0 0 1-.304-.23 1.311 1.311 0 0 1-.232-.37 3.564 3.564 0 0 1-.143-.411 2.458 2.458 0 0 1-.076-.346 2.603 2.603 0 0 1 .025-.77 5.425 5.425 0 0 0 1.71-.644l1.613-.929c.133-.075.24-.16.32-.258.078-.098.164-.187.256-.267.092-.08.194-.155.308-.228.133-.08.284-.128.44-.141l.092-.01a52.469 52.469 0 0 0 3.495-2.272c1.133-.802 2.26-1.615 3.38-2.436.038-.181.113-.366.22-.556.109-.19.213-.375.312-.554.1-.178.19-.361.268-.547.078-.187.107-.367.084-.541-.044-.35-.252-.62-.624-.812l-.121.014c-.216.03-.435.021-.647-.026-.18-.044-.36-.092-.538-.143a3.579 3.579 0 0 0-.566-.11 2.28 2.28 0 0 0-.7.039c-.11-.067-.28-.115-.508-.147a2.259 2.259 0 0 0-.555-.023c-.717.084-1.427.213-2.127.385-.692.17-1.39.306-2.092.409-.169.118-.329.225-.48.322a1.307 1.307 0 0 1-.558.184 2.26 2.26 0 0 1-.273.017 3.8 3.8 0 0 1-.277-.01c-.4.215-.817.398-1.248.545-.47.163-.932.346-1.386.547a7.49 7.49 0 0 0-1.245.693 2.33 2.33 0 0 0-.824.983.487.487 0 0 0 .092.24c.052.07.084.153.092.24l.015.116a.856.856 0 0 0-.192.421 3.39 3.39 0 0 0-.035.446 7.008 7.008 0 0 1-.02.445.916.916 0 0 1-.173.448c.118.282.2.597.243.945.05.388.075.778.073 1.172 0 .393.023.783.074 1.17.046.369.128.693.246.975-.106.13-.134.31-.084.541.05.23.022.41-.085.54.02.156.08.257.177.304.099.048.166.138.203.272-.038.339-.033.702.017 1.089.071.561.21 1.125.415 1.69.205.567.433 1.12.686 1.66.31-.134.646-.258 1.01-.37a5.977 5.977 0 0 1 1.058-.228c.06-.007.12-.009.183-.007.062.003.123 0 .183-.007.067.209.173.393.315.553.144.16.279.341.407.542-.069.123-.14.244-.214.365-.06.095-.08.22-.06.375-.279.053-.501.153-.666.3l-.55.493-.12.014c-.342.041-.616.137-.821.29-.205.152-.439.322-.701.51a1.955 1.955 0 0 0-.744-.06 2.248 2.248 0 0 0-.765.238 1.848 1.848 0 0 1-.865-.532 4.754 4.754 0 0 1-.632-.869 12.932 12.932 0 0 1-.508-.987 7.304 7.304 0 0 0-.5-.914l-.06-.466a7.837 7.837 0 0 0-.27-1.28 7.837 7.837 0 0 1-.27-1.28 3.618 3.618 0 0 1-.026-.559 2.1 2.1 0 0 1 .095-.571 2.287 2.287 0 0 1-.124-.502l-.07-.538a20.378 20.378 0 0 1-.145-1.752 20.378 20.378 0 0 0-.148-1.753 9.847 9.847 0 0 0-.256-1.297c-.096.05-.182.1-.257.148a.62.62 0 0 1-.265.09 1.38 1.38 0 0 1-.29.005 8.869 8.869 0 0 1-.264-.027 1.42 1.42 0 0 1-.504-.59 2.862 2.862 0 0 0-.421-.658c-.047-.368-.03-.68.05-.935.077-.25.185-.49.321-.716.135-.223.277-.442.422-.655.147-.214.261-.474.346-.779l.12-.014c.322-.038.632-.177.927-.419a1.991 1.991 0 0 1 1.048-.434c.132-.205.308-.382.516-.518a3.99 3.99 0 0 1 .73-.396 4.87 4.87 0 0 1 .795-.257c.268-.06.523-.106.764-.134a.604.604 0 0 1 .327-.319c.155-.067.315-.136.48-.204.164-.07.32-.137.464-.202a.746.746 0 0 0 .342-.321c.165.02.32.02.46.004a2.77 2.77 0 0 0 .742-.19c.233-.097.464-.203.694-.319s.467-.227.709-.335c.248-.108.513-.18.784-.21.101-.012.203-.019.304-.021a4.32 4.32 0 0 0 .303-.02c.161-.02.25-.09.265-.21a.406.406 0 0 1 .163-.284c.063.012.174.008.336-.01a6.751 6.751 0 0 0 1.163-.241c.38-.115.77-.196 1.165-.242a5.52 5.52 0 0 1 .547-.034c.184-.003.37.025.562.08a.959.959 0 0 1 .102-.16.36.36 0 0 0 .072-.155 9.551 9.551 0 0 1 2.866.252 29.77 29.77 0 0 0 2.842.548c.144.16.309.298.498.413l.564.347c.189.115.372.23.55.347.179.117.34.265.486.445zM242 25.59c-.003.299-.078.537-.226.714-.147.176-.32.347-.519.51a2.553 2.553 0 0 0-.566.01c-.585.049-1.157.2-1.69.446a9.56 9.56 0 0 1-1.614.585c-.174.06-.355.097-.539.111-.167.01-.337.047-.508.107a27.96 27.96 0 0 1-1.97.48c-.7.145-1.395.305-2.089.48-.684.17-1.362.363-2.033.577-.66.21-1.27.47-1.83.775a2.084 2.084 0 0 1-.192-.109.314.314 0 0 0-.215-.049 1.75 1.75 0 0 0-.547.157c-.164.078-.342.12-.523.123-.18.142-.384.252-.6.328-.22.076-.44.143-.662.2a4.87 4.87 0 0 0-.645.213 1.72 1.72 0 0 0-.578.399 1.424 1.424 0 0 0-.59-.062c-.226.018-.387-.037-.482-.165-.423.27-.887.468-1.375.586-.493.12-.994.202-1.507.244a9.49 9.49 0 0 1-1.164-.006 9.065 9.065 0 0 1-1.334-.178 7.529 7.529 0 0 1-1.27-.381c-.398-.16-.713-.375-.945-.644a1.95 1.95 0 0 1-.374-.61.807.807 0 0 0-.476-.478c.003-.45.018-.898.043-1.346.025-.441.05-.89.073-1.35a14.345 14.345 0 0 0 1.842-2.492 5.4 5.4 0 0 0 .964-.774c.293-.294.583-.593.875-.897.29-.303.582-.603.874-.897.295-.296.616-.565.96-.803a.886.886 0 0 1 .208-.369c.097-.1.2-.203.306-.305.107-.103.202-.214.287-.333a.91.91 0 0 0 .157-.422 6.854 6.854 0 0 0 1.602-1.775 4.831 4.831 0 0 0 .74-2.238 2.61 2.61 0 0 0-1.199-.404 11.151 11.151 0 0 0-1.33-.03c-.396.028-.802.077-1.221.149a9.439 9.439 0 0 1-1.282.128 6.154 6.154 0 0 1-1.305.428c-.455.095-.907.185-1.355.27-.445.085-.885.198-1.316.34-.43.143-.835.356-1.218.641a.806.806 0 0 1-.224-.001.806.806 0 0 0-.225-.003 3.773 3.773 0 0 0-1.718.583l-1.52.976a.454.454 0 0 0-.038.184.823.823 0 0 0 .115.329c.062.1.101.21.115.328-.017.023-.025.043-.022.063.002.02-.005.04-.022.062-.009.1-.021.191-.042.273a8.133 8.133 0 0 1-.07.278 6.338 6.338 0 0 0-.126 1.893c.044.51.106 1.01.186 1.497.079.487.14.986.183 1.498.038.63.012 1.23-.077 1.797.156.458.305.94.446 1.45.143.51.303 1.01.484 1.506.18.494.383.97.609 1.43.225.46.503.89.829 1.284-.016.042-.002.07.04.085.039.014.08.02.121.015l.235-.029c.098-.013.142.022.132.103a.924.924 0 0 1 .108.151.303.303 0 0 0 .134.118c.047.053.056.131.029.234a2.58 2.58 0 0 1-.16 1.122c-.137.36-.201.742-.19 1.126a2.706 2.706 0 0 1-.636.168 1.786 1.786 0 0 1-.916-.171 3.74 3.74 0 0 1-.78-.515 14.214 14.214 0 0 1-.705-.644c-.217-.214-.46-.4-.725-.552a33.65 33.65 0 0 1-.62-1.772c-.21-.65-.49-1.191-.842-1.625.059-.215.072-.44.039-.66a4.228 4.228 0 0 0-.246-1.148 3.575 3.575 0 0 1-.216-1.15 2.925 2.925 0 0 1-.006-.655c.023-.222.03-.44.024-.659a2.94 2.94 0 0 0-.223-.956 2.94 2.94 0 0 1-.221-.956c0-.16.016-.315.046-.468.03-.15.089-.294.172-.423a1.19 1.19 0 0 1-.17-.665 6.885 6.885 0 0 1 .002-.954c.022-.298.025-.597.008-.896a3.003 3.003 0 0 0-.226-.866l-.274-.055a.702.702 0 0 0-.328.129 1.193 1.193 0 0 0-.254.24 3.198 3.198 0 0 1-.182.216.278.278 0 0 1-.167.095.687.687 0 0 1-.135.002.687.687 0 0 0-.134.001c-.039.005-.108.053-.205.145-.113.104-.23.203-.353.296a16.49 16.49 0 0 0-.393.317c-.09.082-.193.15-.303.202a1.092 1.092 0 0 1-.542-.159 5.806 5.806 0 0 1-.392-.279 3.18 3.18 0 0 0-.374-.252.603.603 0 0 0-.454-.05 1.012 1.012 0 0 1-.15-.368 1.94 1.94 0 0 1-.036-.412l-.057-.471c.105-.271.261-.504.466-.698.204-.193.428-.365.668-.513l.72-.446a3.31 3.31 0 0 0 .652-.528l.265-.033c.355-.023.655-.13.9-.318.247-.19.476-.403.683-.636l.642-.72c.22-.244.468-.443.747-.597.228.071.464.127.708.166.242.04.494.054.75.042.268-.035.53-.107.78-.214.25-.1.46-.284.592-.52a1.123 1.123 0 0 0 .51.027 2.16 2.16 0 0 0 .866-.24 5.74 5.74 0 0 0 .804-.502 5.218 5.218 0 0 0 1.152-.215c.373-.115.747-.236 1.119-.362.373-.124.745-.244 1.12-.36a5.135 5.135 0 0 1 1.152-.215 7.867 7.867 0 0 0 1.888-.411 6.993 6.993 0 0 1 1.893-.381c.45-.036.9-.056 1.35-.062.45-.005.9-.045 1.343-.12.27.087.512.16.729.224.216.063.48.055.788-.022a10.365 10.365 0 0 1 1.932 1.64l.061.5c.036.45.011.905-.073 1.35a12.75 12.75 0 0 1-.328 1.336c-.134.442-.284.878-.45 1.307-.164.42-.32.842-.472 1.266a608.87 608.87 0 0 1-3.399 3.904 80.122 80.122 0 0 1-3.535 3.77c-.012.186-.044.37-.096.55a1.72 1.72 0 0 0-.071.515c.007.08.027.157.059.23a.85.85 0 0 1 .394.176c.12.095.173.232.155.413l.265-.032c.097-.012.151.02.161.099l.474-.029c.75-.052 1.492-.162 2.227-.332.734-.17 1.474-.35 2.215-.54.743-.19 1.481-.376 2.216-.555.73-.179 1.47-.324 2.214-.436.168-.08.348-.151.54-.214.187-.061.358-.164.5-.3l.088-.012c.138-.016.245.01.323.08a.489.489 0 0 0 .327.11.91.91 0 0 0 .301-.097 1.99 1.99 0 0 1 .327-.13c.266-.111.548-.196.85-.253.3-.057.596-.123.885-.198a57.21 57.21 0 0 1 3.357-.605c1.125-.17 2.23-.45 3.298-.837a.734.734 0 0 0 .447.228c.182.028.374.054.576.079.202.025.39.056.564.095.17.035.312.151.381.31zm6.985-14.553l.015.12c-.132.056-.189.163-.17.322-.203.127-.419.23-.645.308s-.442.18-.645.307c-.443.014-.884.05-1.324.106-.584.073-1.166.166-1.747.28a13.28 13.28 0 0 1-1.754.219c-.261.197-.546.36-.847.483-.31.13-.612.214-.906.25-.233.03-.442.025-.624-.012-.44.296-.928.559-1.464.788-.536.228-1.078.452-1.626.672-.547.22-1.067.456-1.562.709-.475.24-.903.565-1.264.96-.01.543.015 1.086.077 1.625.033.277.08.534.137.769.059.234.15.465.277.691.102.028.218.043.347.047.129.005.242 0 .34-.012a1.01 1.01 0 0 0 .287-.082.313.313 0 0 0 .18-.218c.288-.077.579-.128.872-.155.294-.026.587-.059.88-.095.293-.036.578-.083.859-.138.28-.055.551-.14.815-.253a5.13 5.13 0 0 1 .903-.265l.885-.17c.301-.06.6-.132.894-.218a3.56 3.56 0 0 0 .927-.434c.266.068.53.085.794.052.259-.032.52-.045.781-.037.149.082.274.177.376.286.103.11.167.25.182.401.033.278-.03.568-.192.87a5.973 5.973 0 0 0-.375.834l-.32.04c-.46.056-.91.179-1.337.364a16.59 16.59 0 0 0-1.262.611c-.42.224-.84.428-1.263.612a4.838 4.838 0 0 1-1.336.364c-.078.01-.117.06-.116.15.002.091-.015.159-.05.203a2.373 2.373 0 0 0-.442.026 5.46 5.46 0 0 0-1.269.31c-.4.15-.816.253-1.239.305-.235.03-.472.04-.709.029a.697.697 0 0 1-.342.36 1.251 1.251 0 0 0-.408.308 2.465 2.465 0 0 0-.023.67l.065.792c.023.27.03.527.018.77a1.17 1.17 0 0 1-.165.595c.031.097.113.122.247.075.132-.047.21.009.228.168.021.18.025.37.01.574-.015.203-.011.404.012.603.046.377.14.784.281 1.22.142.436.328.832.559 1.185.22.345.513.634.858.846.342.21.747.285 1.215.226.301-.035.592-.134.855-.288.26-.154.46-.38.602-.68l.142-.049a.786.786 0 0 1 .223.003.786.786 0 0 0 .223.002c.117-.014.26-.107.427-.28.167-.172.35-.371.55-.598.201-.227.407-.45.618-.668.21-.217.419-.38.624-.486.102-.295.201-.59.293-.883a1.51 1.51 0 0 1 .492-.728l-.104-.864a5.05 5.05 0 0 1 .557-.674c.203-.208.346-.457.429-.75.102.027.199.046.29.055.089.008.183.006.28-.006.21-.027.413-.094.6-.196.183.2.333.427.453.685.12.257.263.496.428.717-.132.38-.285.833-.46 1.358a27.2 27.2 0 0 1-.58 1.586 18.267 18.267 0 0 1-.693 1.524c-.248.485-.503.864-.767 1.14-.051.067-.17.152-.356.255-.195.186-.37.365-.528.536-.158.17-.302.365-.434.583a8.282 8.282 0 0 0-1.537.919c-.474.357-.951.71-1.432 1.056a3.094 3.094 0 0 0-.77.006 5.489 5.489 0 0 0-.697.132c-.248.062-.5.11-.754.14a.55.55 0 0 0-.36-.151c-.15-.012-.217-.11-.2-.293-.667.043-1.225-.074-1.674-.35a4.41 4.41 0 0 1-1.184-1.077 7.392 7.392 0 0 1-.873-1.464 30.852 30.852 0 0 0-.75-1.54l-.011-.09c-.012-.099.02-.163.096-.192.075-.03.107-.094.095-.194-.005-.04-.018-.069-.04-.086a28.588 28.588 0 0 1-.215-.548 2.364 2.364 0 0 1-.125-.559 7.522 7.522 0 0 1-.056-.946 7.522 7.522 0 0 0-.054-.945 2.701 2.701 0 0 0-.218-.82 1.19 1.19 0 0 0 .142-.427c.028-.174.041-.353.039-.534a9.679 9.679 0 0 0-.02-.541 2.284 2.284 0 0 1 .015-.487c-.092-.185-.184-.37-.274-.555a1.885 1.885 0 0 1-.162-.6l-.025-.209a7.31 7.31 0 0 0 .371-1.105c.094-.375.196-.76.306-1.157l-.01-.09a25.75 25.75 0 0 0-.267-1.72 25.549 25.549 0 0 1-.267-1.722l-.07-.58a5.122 5.122 0 0 1-.037-.556.824.824 0 0 0 .31-.372.823.823 0 0 1 .313-.371l.965-.122.14-.32a.958.958 0 0 0 .077-.342c.21-.088.41-.2.598-.332a6.18 6.18 0 0 0 .528-.414l.694-.525c.404-.307.85-.551 1.323-.726.282-.102.569-.188.86-.258.155-.02.254-.062.295-.128a1.58 1.58 0 0 1 .195-.236 19 19 0 0 0 .714.017c.238 0 .473-.014.707-.043a3.3 3.3 0 0 0 1.284-.433 53.3 53.3 0 0 0 1.736-.248 50.827 50.827 0 0 1 1.737-.248 19.602 19.602 0 0 1 1.527-.13 12.335 12.335 0 0 1 1.517.022c.168-.082.36-.136.574-.162.234-.03.475-.035.725-.016.242.02.486-.005.718-.075.046.216.122.393.227.531.107.139.171.308.195.506zm14.999 12.709c.045.306-.005.619-.144.896-.137.265-.164.571-.081.918-.257.19-.457.423-.603.699-.146.276-.28.56-.404.853a19.533 19.533 0 0 1-3.925 2.55 13.926 13.926 0 0 1-4.494 1.336.354.354 0 0 1-.281-.099 7.103 7.103 0 0 1-.271-.25 3.42 3.42 0 0 0-.285-.248.43.43 0 0 0-.327-.094.536.536 0 0 0-.313.128.326.326 0 0 1 .002-.105.326.326 0 0 0 .002-.104 3.038 3.038 0 0 0-.178-.708 3.081 3.081 0 0 1-.177-.708c-.034-.274-.012-.505.065-.693l.353-.043c.193-.023.384-.061.57-.114.184-.052.384-.093.601-.118.216-.027.42.008.612.103a9.879 9.879 0 0 0 3.01-.977 173.5 173.5 0 0 1 2.834-1.433c.13-.235.194-.485.19-.753-.003-.264.04-.527.13-.776a7.182 7.182 0 0 0-1.675-.823c-.551-.18-1.167-.19-1.845-.027a2.978 2.978 0 0 0-1.368-.28 18.29 18.29 0 0 1-1.424-.005 6.194 6.194 0 0 1-.378-.028 1.79 1.79 0 0 0-.404.005.575.575 0 0 0-.27.107c-.084.06-.1.136-.048.23a.58.58 0 0 0-.433-.231.792.792 0 0 1-.455-.168c-.635.038-1.2-.007-1.694-.135a120.82 120.82 0 0 1-1.642-.44 2.996 2.996 0 0 0-.474-.076 1.438 1.438 0 0 1-.448-.11 2.353 2.353 0 0 1-.943-.599 3.783 3.783 0 0 1-.638-.92 6.176 6.176 0 0 1-.42-1.095 44.623 44.623 0 0 0-.311-1.065c.138-.333.26-.677.367-1.027.109-.36.189-.729.239-1.102a2.74 2.74 0 0 1 .335-.189 4.75 4.75 0 0 0 .366-.193.327.327 0 0 1-.048-.143.51.51 0 0 1 .068-.307c.057-.106.06-.205.008-.298.384-.444.752-.901 1.104-1.37a7.41 7.41 0 0 0 .875-1.523 1.63 1.63 0 0 0 .654-.526c.153-.217.305-.44.457-.667.152-.227.326-.436.522-.629s.459-.328.788-.41a.976.976 0 0 1 .283-.376c.127-.105.254-.204.383-.3.126-.093.243-.197.35-.311a.883.883 0 0 0 .215-.442c.3-.034.59-.13.85-.283.25-.15.495-.308.735-.476.238-.169.484-.328.735-.477A2.146 2.146 0 0 1 256.373 7c.08 0 .17.004.27.012.155.12.269.269.34.45.073.18.132.375.178.588.047.213.088.426.124.64.037.214.095.405.176.574-.136.354-.287.71-.452 1.068a2.1 2.1 0 0 1-.717.862l-.06.007a.54.54 0 0 1-.394-.042.736.736 0 0 0-.428-.066c-.098.013-.169.045-.212.1l-.13.166a.837.837 0 0 1-.16.153c-.065.048-.158.058-.281.034-.263.131-.351.311-.262.538-.37.085-.671.236-.904.453-.231.215-.443.45-.632.702-.18.241-.371.473-.573.696a1.284 1.284 0 0 1-.73.402 6.582 6.582 0 0 1-1.032 1.704 6.208 6.208 0 0 0-1.007 1.671c.078.15.137.311.179.485.042.174.094.356.158.546.206.214.442.394.71.54.268.145.531.292.789.439l.088-.011c.375-.05.757-.02 1.12.087.353.106.724.137 1.09.09a1.01 1.01 0 0 0 .487-.178c.526.055 1.044.09 1.556.108s1.025.013 1.542-.01c.26.009.523-.004.79-.037.265-.032.52-.033.763-.004.223.033.448.08.677.141.226.062.455.128.683.2.476.14.93.302 1.364.488.432.186.825.42 1.18.705s.647.626.876 1.026c.228.398.377.871.445 1.419zm16-2c.045.306-.005.619-.144.895-.137.265-.164.572-.081.918a2.076 2.076 0 0 0-.603.7c-.147.279-.282.563-.404.853a19.533 19.533 0 0 1-3.925 2.549 13.926 13.926 0 0 1-4.493 1.337.354.354 0 0 1-.282-.099 7.103 7.103 0 0 1-.27-.25 3.42 3.42 0 0 0-.286-.248.43.43 0 0 0-.326-.095.536.536 0 0 0-.313.128.326.326 0 0 1 .001-.104.326.326 0 0 0 .002-.104 3.066 3.066 0 0 0-.178-.71 3.081 3.081 0 0 1-.176-.707c-.034-.273-.013-.504.064-.693l.354-.043c.193-.023.384-.061.57-.114.183-.052.383-.092.6-.118s.42.009.612.105a9.88 9.88 0 0 0 3.01-.978c.94-.487 1.885-.965 2.834-1.434.13-.233.194-.485.192-.752a2.22 2.22 0 0 1 .128-.775 7.182 7.182 0 0 0-1.675-.824c-.551-.18-1.167-.19-1.845-.027a2.978 2.978 0 0 0-1.368-.28 17.82 17.82 0 0 1-1.424-.005 6.195 6.195 0 0 1-.378-.028 1.79 1.79 0 0 0-.403.004.575.575 0 0 0-.272.108c-.083.06-.098.136-.046.229a.58.58 0 0 0-.433-.23.792.792 0 0 1-.455-.168c-.635.038-1.2-.008-1.695-.135a139.51 139.51 0 0 1-1.642-.44 2.996 2.996 0 0 0-.474-.077 1.438 1.438 0 0 1-.448-.109 2.353 2.353 0 0 1-.943-.6 3.783 3.783 0 0 1-.638-.92 6.176 6.176 0 0 1-.42-1.095 45.472 45.472 0 0 0-.311-1.063c.139-.335.26-.677.367-1.028.109-.36.189-.728.239-1.101a2.76 2.76 0 0 1 .336-.19c.113-.054.235-.118.366-.193a.327.327 0 0 1-.049-.143.51.51 0 0 1 .068-.306c.057-.107.06-.206.009-.3.384-.443.751-.9 1.103-1.37.352-.47.646-.982.876-1.522.282-.133.5-.308.654-.526.152-.217.304-.439.457-.666.152-.227.325-.437.521-.63.196-.192.459-.328.789-.408a.976.976 0 0 1 .282-.377c.127-.105.254-.205.383-.3a2.59 2.59 0 0 0 .35-.311.879.879 0 0 0 .215-.443c.3-.034.59-.13.85-.283.251-.15.496-.308.736-.477.238-.168.483-.327.734-.476A2.146 2.146 0 0 1 272.373 5c.08 0 .17.004.27.012.155.12.269.27.341.45.072.18.131.376.178.588.046.214.087.426.123.64.037.214.096.406.176.575a17.2 17.2 0 0 1-.452 1.068 2.1 2.1 0 0 1-.717.861l-.06.007a.54.54 0 0 1-.394-.041.736.736 0 0 0-.428-.067c-.098.012-.169.046-.211.1l-.13.165a.837.837 0 0 1-.161.154c-.065.047-.158.06-.28.034-.264.132-.351.311-.263.538-.37.086-.67.236-.904.454-.23.215-.442.45-.632.702-.18.24-.37.473-.573.695a1.284 1.284 0 0 1-.73.402 6.582 6.582 0 0 1-1.032 1.704 6.208 6.208 0 0 0-1.007 1.672c.078.149.138.31.18.484.041.173.093.356.157.547.207.212.443.392.71.538.269.146.531.293.789.44l.089-.01c.375-.05.756-.02 1.119.086.353.106.724.137 1.09.09a1.01 1.01 0 0 0 .487-.178c.517.054 1.036.09 1.556.107.512.017 1.026.014 1.542-.008.26.007.524-.005.79-.038a3.14 3.14 0 0 1 .763-.003 5.7 5.7 0 0 1 .677.14c.227.062.455.129.683.2.477.14.931.303 1.364.488.432.186.826.42 1.18.705.356.284.647.626.876 1.025.23.398.377.872.445 1.42z" fill="#ea8a2f" fill-rule="nonzero"/></g></svg>