<?xml version="1.0" encoding="UTF-8"?>
<svg width="78px" height="69px" viewBox="0 0 78 69" version="1.1" xmlns="http://www.w3.org/2000/svg" xmlns:xlink="http://www.w3.org/1999/xlink">
    <title>“</title>
    <defs>
        <path d="M790.053847,60 C796.969231,60 801.876923,55.2985062 801.876923,47.6865684 C801.876923,40.2985062 796.076923,36.268656 790.053847,36.268656 C789.384615,36.268656 788.715385,36.268656 788.046154,36.492537 C788.046154,23.9552238 793.623077,16.1194038 805,8.7313434 L799.646153,0 C784.253847,8.9552238 776,21.9402978 776,39.850746 C776,52.83582 781.130769,60 790.053847,60 Z M829.053847,60 C835.969231,60 840.876923,55.2985062 840.876923,47.6865684 C840.876923,40.2985062 835.076923,36.268656 829.053847,36.268656 C828.384615,36.268656 827.715385,36.268656 827.046154,36.492537 C827.046154,23.9552238 832.623077,16.1194038 844,8.7313434 L838.646153,0 C823.253847,8.9552238 815,21.9402978 815,39.850746 C815,52.83582 820.130769,60 829.053847,60 Z" id="path-1"></path>
        <filter x="-11.0%" y="-12.5%" width="122.1%" height="125.0%" filterUnits="objectBoundingBox" id="filter-2">
            <feOffset dx="0" dy="0" in="SourceAlpha" result="shadowOffsetOuter1"></feOffset>
            <feGaussianBlur stdDeviation="2.5" in="shadowOffsetOuter1" result="shadowBlurOuter1"></feGaussianBlur>
            <feComposite in="shadowBlurOuter1" in2="SourceAlpha" operator="out" result="shadowBlurOuter1"></feComposite>
            <feColorMatrix values="0 0 0 0 0   0 0 0 0 0   0 0 0 0 0  0 0 0 0.5019608 0" type="matrix" in="shadowBlurOuter1"></feColorMatrix>
        </filter>
    </defs>
    <g id="Symbols" stroke="none" stroke-width="1" fill="none" fill-rule="evenodd">
        <g id="testimonials" transform="translate(-921.000000, -97.000000)">
            <g transform="translate(150.000000, 101.054300)" id="“">
                <use fill="black" fill-opacity="1" filter="url(#filter-2)" xlink:href="#path-1"></use>
                <use fill="#FFFFFF" fill-rule="evenodd" xlink:href="#path-1"></use>
            </g>
        </g>
    </g>
</svg>